<svg xmlns="http://www.w3.org/2000/svg" viewBox="0 0 300 100">
  <!-- Background Shape -->
  <rect width="300" height="100" fill="transparent"/>
  
  <!-- Main Logo Elements -->
  <g transform="translate(25, 50)">
    <!-- Modern Sync Icon -->
    <g transform="translate(0, -15)">
      <!-- Abstract Sync Shapes -->
      <polygon points="0,0 20,0 30,15 20,30 0,30 10,15" fill="#4682B4" />
      <polygon points="15,7 35,7 45,22 35,37 15,37 25,22" fill="#1E90FF" />
      <path d="M25,15 L35,15 M25,30 L35,30" stroke="#FFFFFF" stroke-width="2" fill="none" stroke-linecap="round"/>
      <path d="M40,15 L35,10 M40,15 L35,20" stroke="#FFFFFF" stroke-width="2" fill="none" stroke-linecap="round"/>
      <path d="M20,30 L25,25 M20,30 L25,35" stroke="#FFFFFF" stroke-width="2" fill="none" stroke-linecap="round"/>
    </g>
    
    <!-- Text -->
    <g transform="translate(60, 0)">
      <text font-family="Arial, sans-serif" font-weight="700" font-size="28" fill="#333333">
        <tspan x="0" y="8">Service</tspan>
      </text>
      <text font-family="Arial, sans-serif" font-weight="700" font-size="28" fill="#4682B4">
        <tspan x="100" y="8">Sync</tspan>
      </text>
    </g>
  </g>
</svg>
