<?xml version="1.0" encoding="UTF-8"?>
<svg version="1.1" xmlns="http://www.w3.org/2000/svg" width="1714" height="481">
<path d="M0 0 C565.62 0 1131.24 0 1714 0 C1714 158.73 1714 317.46 1714 481 C1148.38 481 582.76 481 0 481 C0 322.27 0 163.54 0 0 Z " fill="#FEFEFE" transform="translate(0,0)"/>
<path d="M0 0 C5.94 0 11.88 0 18 0 C19.75 7.625 19.75 7.625 20.27246094 9.92822266 C21.92941806 17.05173705 23.98051678 23.93180873 26 31 C28.31 20.77 30.62 10.54 33 0 C38.94 0 44.88 0 51 0 C49.59635509 6.60183227 47.92697857 13.07674458 46.0625 19.5625 C45.81048828 20.45646484 45.55847656 21.35042969 45.29882812 22.27148438 C43.95950364 26.953982 42.50316188 31.53551195 40.7434082 36.0769043 C39.97517707 38.06421355 39.2516741 40.06382327 38.53515625 42.0703125 C38.04427083 43.421875 37.55338542 44.7734375 37.0625 46.125 C36.70381836 47.14013672 36.70381836 47.14013672 36.33789062 48.17578125 C33.80334548 55.0906089 30.86597294 60.623292 24 64 C20.85090012 64.44561395 17.79693524 64.3815316 14.625 64.25 C13.79355469 64.23195313 12.96210937 64.21390625 12.10546875 64.1953125 C10.06980926 64.14851573 8.0347491 64.07678298 6 64 C6 60.04 6 56.08 6 52 C12.435 51.505 12.435 51.505 19 51 C19.66 49.02 20.32 47.04 21 45 C19.02 45 17.04 45 15 45 C11.34904057 37.33298521 8.65879757 29.43598798 5.99853516 21.38671875 C5.24406349 19.10706267 4.47989852 16.83081087 3.71484375 14.5546875 C3.23119276 13.1017548 2.74809929 11.64863637 2.265625 10.1953125 C1.92352997 9.17813644 1.92352997 9.17813644 1.57452393 8.14041138 C0.64017544 5.29474699 0 3.01786173 0 0 Z " fill="#373737" transform="translate(1117,227)"/>
<path d="M0 0 C0.95132813 -0.00128906 1.90265625 -0.00257813 2.8828125 -0.00390625 C3.87539063 -0.00003906 4.86796875 0.00382813 5.890625 0.0078125 C6.86773438 0.00394531 7.84484375 0.00007812 8.8515625 -0.00390625 C14.05628629 0.0031082 19.01281072 0.23043178 24.140625 1.1328125 C23.99967436 2.7582433 23.85270413 4.38315301 23.703125 6.0078125 C23.62191406 6.91273438 23.54070313 7.81765625 23.45703125 8.75 C23.140625 11.1328125 23.140625 11.1328125 22.140625 13.1328125 C15.210625 13.1328125 8.280625 13.1328125 1.140625 13.1328125 C2.51903657 17.95439604 2.51903657 17.95439604 4.84887695 19.26367188 C5.51878662 19.49892578 6.18869629 19.73417969 6.87890625 19.9765625 C7.61689453 20.25371094 8.35488281 20.53085938 9.11523438 20.81640625 C9.88673828 21.08582031 10.65824219 21.35523438 11.453125 21.6328125 C18.54250305 24.1462646 22.83871645 26.67994968 27.140625 33.1328125 C27.99672183 39.29471872 27.62430681 45.04713325 24.46875 50.48046875 C20.7226559 55.14105053 14.8351495 57.03064647 9.140625 58.1328125 C0.28841652 58.71013044 -8.15916076 57.72761446 -16.859375 56.1328125 C-16.71904389 54.15324809 -16.5719627 52.17416109 -16.421875 50.1953125 C-16.34066406 49.09316406 -16.25945313 47.99101562 -16.17578125 46.85546875 C-15.859375 44.1328125 -15.859375 44.1328125 -14.859375 43.1328125 C-11.19592889 42.99712931 -8.35321779 42.96819824 -4.859375 44.1328125 C-2.46446514 44.20251302 -0.06769809 44.21729253 2.328125 44.1953125 C3.60042969 44.18628906 4.87273438 44.17726563 6.18359375 44.16796875 C7.15941406 44.15636719 8.13523437 44.14476562 9.140625 44.1328125 C9.25433783 41.70521789 9.25433783 41.70521789 8.140625 39.1328125 C5.50101881 37.87930088 3.15922124 36.97119023 0.390625 36.1328125 C-6.47291686 34.00955854 -10.2871923 31.64288715 -14.6484375 25.69140625 C-17.29645667 20.09639801 -16.61758995 13.36755129 -14.671875 7.6328125 C-10.68325262 2.13126439 -6.70108257 0.00877433 0 0 Z " fill="#373737" transform="translate(671.859375,216.8671875)"/>
<path d="M0 0 C1.78277344 0.00773438 1.78277344 0.00773438 3.6015625 0.015625 C5.45007812 0.0465625 5.45007812 0.0465625 7.3359375 0.078125 C9.19605469 0.08585938 9.19605469 0.08585938 11.09375 0.09375 C20.24658203 0.17333984 20.24658203 0.17333984 23.7109375 1.328125 C23.79477828 5.60400498 23.55821953 9.09171487 22.7109375 13.328125 C15.4509375 13.328125 8.1909375 13.328125 0.7109375 13.328125 C1.22167187 17.32054836 1.22167187 17.32054836 3.59692383 18.52905273 C4.40411865 18.85333252 5.21131348 19.1776123 6.04296875 19.51171875 C6.92404297 19.88232422 7.80511719 20.25292969 8.71289062 20.63476562 C9.64037109 21.00794922 10.56785156 21.38113281 11.5234375 21.765625 C23.30508691 26.51642381 23.30508691 26.51642381 26.7109375 33.328125 C27.21332385 39.78185738 27.65535435 45.88755004 23.7109375 51.328125 C18.53827407 56.65292559 11.78568835 58.48019236 4.5234375 58.640625 C-13.48751141 58.12967609 -13.48751141 58.12967609 -16.2890625 55.328125 C-16.38730187 53.66383449 -16.41879881 51.99530569 -16.4140625 50.328125 C-16.41664062 49.420625 -16.41921875 48.513125 -16.421875 47.578125 C-16.2890625 45.328125 -16.2890625 45.328125 -15.2890625 44.328125 C-13.50835004 44.24086277 -11.7242311 44.22113459 -9.94140625 44.23046875 C-8.86181641 44.23369141 -7.78222656 44.23691406 -6.66992188 44.24023438 C-4.96545898 44.25280273 -4.96545898 44.25280273 -3.2265625 44.265625 C-1.51629883 44.27239258 -1.51629883 44.27239258 0.22851562 44.27929688 C3.05604101 44.29112753 5.8834639 44.3076109 8.7109375 44.328125 C8.45725542 41.87340954 8.45725542 41.87340954 7.7109375 39.328125 C5.25805039 38.06992397 3.11456848 37.17300562 0.5234375 36.328125 C-6.13153694 34.09465065 -10.95692175 31.59312205 -15.1640625 25.703125 C-17.0156542 20.14834991 -17.54556049 14.4822969 -15.33984375 8.9453125 C-11.60627602 2.56173613 -7.52494171 -0.0647643 0 0 Z " fill="#383838" transform="translate(1088.2890625,216.671875)"/>
<path d="M0 0 C1.79244141 0.01740234 1.79244141 0.01740234 3.62109375 0.03515625 C5.41740234 0.04869141 5.41740234 0.04869141 7.25 0.0625 C8.17683594 0.07410156 9.10367187 0.08570313 10.05859375 0.09765625 C10.71859375 2.40765625 11.37859375 4.71765625 12.05859375 7.09765625 C12.60128906 6.67613281 13.14398437 6.25460938 13.703125 5.8203125 C14.41855469 5.27246094 15.13398437 4.72460938 15.87109375 4.16015625 C16.57878906 3.61488281 17.28648438 3.06960937 18.015625 2.5078125 C23.06575493 -0.97803244 29.17254057 -0.35272777 35.05859375 0.09765625 C40.58984375 2.16015625 40.58984375 2.16015625 42.05859375 5.09765625 C42.14761868 6.45610818 42.17619507 7.81881599 42.17211914 9.18017578 C42.17204361 10.0208963 42.17196808 10.86161682 42.17189026 11.72781372 C42.16414833 13.09037796 42.16414833 13.09037796 42.15625 14.48046875 C42.15483505 15.40987274 42.1534201 16.33927673 42.15196228 17.29684448 C42.14635428 20.27214749 42.13380043 23.24737589 42.12109375 26.22265625 C42.11607978 28.23697808 42.1115167 30.25130109 42.10742188 32.265625 C42.09638225 37.20966427 42.07911224 42.1536476 42.05859375 47.09765625 C39.41269361 47.12450304 36.76706279 47.14441982 34.12109375 47.16015625 C33.36634766 47.16853516 32.61160156 47.17691406 31.83398438 47.18554688 C29.90865062 47.19418066 27.98323794 47.14989958 26.05859375 47.09765625 C25.05859375 46.09765625 25.05859375 46.09765625 24.94506836 43.04663086 C24.94522741 41.69774354 24.95091763 40.34885011 24.9609375 39 C24.96235245 38.29114151 24.9637674 37.58228302 24.96522522 36.85194397 C24.97083932 34.57963913 24.98339412 32.3074315 24.99609375 30.03515625 C25.00110694 28.49804829 25.00567016 26.9609388 25.00976562 25.42382812 C25.02081333 21.64839983 25.03808734 17.87304454 25.05859375 14.09765625 C21.42859375 14.42765625 17.79859375 14.75765625 14.05859375 15.09765625 C13.72859375 25.65765625 13.39859375 36.21765625 13.05859375 47.09765625 C7.77859375 47.09765625 2.49859375 47.09765625 -2.94140625 47.09765625 C-4.50047407 45.53858843 -4.06862996 44.03611344 -4.07080078 41.86914062 C-4.07395294 40.97151001 -4.0771051 40.07387939 -4.08035278 39.14904785 C-4.07832855 38.17302612 -4.07630432 37.19700439 -4.07421875 36.19140625 C-4.07517548 35.19637085 -4.0761322 34.20133545 -4.07711792 33.17614746 C-4.07779985 31.06778907 -4.07594469 28.9594286 -4.07177734 26.85107422 C-4.06642928 23.61160598 -4.07172192 20.3722764 -4.078125 17.1328125 C-4.07746422 15.08984344 -4.07618306 13.04687447 -4.07421875 11.00390625 C-4.07624298 10.02788452 -4.07826721 9.05186279 -4.08035278 8.04626465 C-4.07720062 7.14863403 -4.07404846 6.25100342 -4.07080078 5.32617188 C-4.07000519 4.53198853 -4.06920959 3.73780518 -4.06838989 2.91955566 C-3.85134221 -0.1945387 -3.162644 0.10500146 0 0 Z " fill="#3A3A3A" transform="translate(1175.94140625,226.90234375)"/>
<path d="M0 0 C0.73347656 -0.01611328 1.46695313 -0.03222656 2.22265625 -0.04882812 C7.05134081 -0.05314716 10.30647506 0.68844519 14.5 3.3125 C18.5579798 7.3704798 20.48220435 10.66836048 21.5 16.3125 C21.5 19.9425 21.5 23.5725 21.5 27.3125 C12.26 27.3125 3.02 27.3125 -6.5 27.3125 C-5.16436384 32.25713635 -5.16436384 32.25713635 -2.5 33.3125 C-0.90737934 33.46425549 0.69064856 33.56150325 2.2890625 33.62890625 C3.23007812 33.67080078 4.17109375 33.71269531 5.140625 33.75585938 C6.61789062 33.81483398 6.61789062 33.81483398 8.125 33.875 C9.61386719 33.93977539 9.61386719 33.93977539 11.1328125 34.00585938 C13.58839838 34.11211069 16.04408703 34.21414964 18.5 34.3125 C19.70272819 36.71795638 19.60071472 38.26246953 19.5625 40.9375 C19.55347656 41.75476563 19.54445313 42.57203125 19.53515625 43.4140625 C19.52355469 44.04054688 19.51195312 44.66703125 19.5 45.3125 C9.71126684 48.73143383 -1.62549758 50.63766368 -11.5625 46.75 C-16.80625674 43.95003178 -20.38382863 40.02265583 -22.640625 34.54296875 C-24.87741159 26.1346846 -24.98098032 15.0493237 -20.5 7.3125 C-15.07323189 0.82919296 -7.92749936 -0.03483084 0 0 Z " fill="#383838" transform="translate(728.5,226.6875)"/>
<path d="M0 0 C3.73400195 3.02915664 6.05953009 6.30735595 7.1875 11 C7.49255455 15.72326126 7.36994684 20.25638222 7.1875 25 C-1.7225 25 -10.6325 25 -19.8125 25 C-18.35961014 29.5841963 -18.35961014 29.5841963 -16.8125 31 C-15.17993242 31.15714654 -13.54114662 31.25085414 -11.90234375 31.31640625 C-10.91298828 31.35830078 -9.92363281 31.40019531 -8.90429688 31.44335938 C-7.86337891 31.48267578 -6.82246094 31.52199219 -5.75 31.5625 C-4.18282227 31.62727539 -4.18282227 31.62727539 -2.58398438 31.69335938 C0.00633972 31.79981105 2.59690175 31.90044308 5.1875 32 C5.6825 36.95 5.6825 36.95 6.1875 42 C-2.19265431 46.70106218 -12.81733065 47.44218589 -22.21875 45.50390625 C-27.91433736 43.56521594 -32.25085354 40.48898997 -35.45703125 35.37890625 C-37.14341808 31.17508895 -37.2687877 27.73163035 -37.1875 23.25 C-37.17807373 22.4544873 -37.16864746 21.65897461 -37.15893555 20.83935547 C-36.97558704 13.67634548 -36.52606216 7.01506907 -31.5625 1.5 C-23.18441963 -3.06986202 -8.69914615 -4.87480454 0 0 Z " fill="#383838" transform="translate(950.8125,229)"/>
<path d="M0 0 C3.02203116 2.94079796 5.26816257 5.70601969 7.375 9.375 C8.19097656 10.74785156 8.19097656 10.74785156 9.0234375 12.1484375 C10.77812662 17.27212972 7.97048944 21.12027544 5.75 25.73046875 C4.8379848 27.55181577 3.92104586 29.37070304 3 31.1875 C2.50870605 32.16364258 2.01741211 33.13978516 1.51123047 34.14550781 C-1.93660875 40.97025674 -5.47667899 47.74241283 -9.06811523 54.49243164 C-13.46481901 62.79557493 -17.63255693 71.21316572 -21.79833984 79.63378906 C-22.33023926 80.7059668 -22.86213867 81.77814453 -23.41015625 82.8828125 C-23.88590088 83.84590332 -24.36164551 84.80899414 -24.85180664 85.80126953 C-26 88 -26 88 -27 89 C-28.4887186 89.08669432 -29.981445 89.10703494 -31.47265625 89.09765625 C-32.37177734 89.09443359 -33.27089844 89.09121094 -34.19726562 89.08789062 C-35.61555664 89.07532227 -35.61555664 89.07532227 -37.0625 89.0625 C-38.01189453 89.05798828 -38.96128906 89.05347656 -39.93945312 89.04882812 C-42.29303065 89.0370011 -44.64648477 89.02052025 -47 89 C-42.23423143 79.33888002 -37.34195626 69.74677591 -32.375 60.1875 C-31.83721924 59.15117432 -31.29943848 58.11484863 -30.74536133 57.04711914 C-28.20967542 52.17771833 -25.64532731 47.32856356 -23.00390625 42.515625 C-19.18360171 35.54782512 -15.5684082 28.47510985 -11.94335938 21.40429688 C-8.18665627 14.12991259 -4.18970165 7.03369661 0 0 Z " fill="#3597CB" transform="translate(1014,205)"/>
<path d="M0 0 C5.94 0 11.88 0 18 0 C20.31 11.22 22.62 22.44 25 34 C26.83887259 26.64450966 28.61613265 19.35509189 30.125 11.9375 C30.45930093 10.3004462 30.79517037 8.6637117 31.1328125 7.02734375 C31.27605957 6.32343506 31.41930664 5.61952637 31.56689453 4.89428711 C32 3 32 3 33 0 C38.94 0 44.88 0 51 0 C40.56390977 36.09022556 40.56390977 36.09022556 37 45 C29.08 45 21.16 45 13 45 C9.31812253 34.17528023 5.71799575 23.36526209 2.5625 12.375 C2.30388184 11.48143799 2.04526367 10.58787598 1.77880859 9.66723633 C1.54371582 8.83603271 1.30862305 8.0048291 1.06640625 7.1484375 C0.85959229 6.41802246 0.65277832 5.68760742 0.43969727 4.93505859 C0 3 0 3 0 0 Z " fill="#353535" transform="translate(790,228)"/>
<path d="M0 0 C1.04667847 -0.00700928 1.04667847 -0.00700928 2.11450195 -0.01416016 C5.57159342 -0.00332941 8.36633555 0.27908389 11.75 1.125 C11.42 4.755 11.09 8.385 10.75 12.125 C9.47382812 12.17398438 8.19765625 12.22296875 6.8828125 12.2734375 C5.21351928 12.34846191 3.54424954 12.42400988 1.875 12.5 C0.61236328 12.54640625 0.61236328 12.54640625 -0.67578125 12.59375 C-1.88427734 12.65175781 -1.88427734 12.65175781 -3.1171875 12.7109375 C-3.86081543 12.7423584 -4.60444336 12.7737793 -5.37060547 12.80615234 C-7.49010974 12.97919551 -7.49010974 12.97919551 -9.25 15.125 C-9.53260768 18.34591037 -9.53260768 18.34591037 -9.4375 22 C-9.43105469 23.23492187 -9.42460938 24.46984375 -9.41796875 25.7421875 C-9.28521753 28.41573523 -9.04538896 30.59248155 -8.25 33.125 C-4.40158652 34.30531238 -0.491721 34.45735351 3.5 34.6875 C4.54607422 34.75227539 4.54607422 34.75227539 5.61328125 34.81835938 C7.32531922 34.92389596 9.03763561 35.0248991 10.75 35.125 C11.245 40.57 11.245 40.57 11.75 46.125 C1.69992613 48.56138154 -9.95319718 50.66352083 -19.25 45.125 C-20.136875 44.609375 -21.02375 44.09375 -21.9375 43.5625 C-27.02769096 38.19716358 -28.49880209 31.88986958 -28.6875 24.625 C-28.41850139 16.75910975 -27.22061983 8.74440689 -21.25 3.125 C-14.85003025 -0.43053875 -7.11354001 0.03359594 0 0 Z " fill="#373737" transform="translate(897.25,226.875)"/>
<path d="M0 0 C1.11310547 0.00902344 2.22621094 0.01804688 3.37304688 0.02734375 C6.10309023 0.0507776 8.8326801 0.083586 11.5625 0.125 C11.42154936 1.7504308 11.27457913 3.37534051 11.125 5 C11.04378906 5.90492188 10.96257812 6.80984375 10.87890625 7.7421875 C10.5625 10.125 10.5625 10.125 9.5625 12.125 C3.6225 12.455 -2.3175 12.785 -8.4375 13.125 C-10.10349156 17.2899789 -10.77314787 19.35919325 -10.875 23.625 C-10.91496094 24.5428125 -10.95492188 25.460625 -10.99609375 26.40625 C-10.18258921 30.36568466 -8.66776649 31.74236219 -5.4375 34.125 C-2.65961198 34.82985315 0.01816665 34.91452279 2.875 34.9375 C3.61556641 34.96263672 4.35613281 34.98777344 5.11914062 35.01367188 C6.93302969 35.07218443 8.74781903 35.10154349 10.5625 35.125 C11.0575 40.075 11.0575 40.075 11.5625 45.125 C3.34137145 49.32302309 -7.22018195 49.71526777 -16.140625 47.43359375 C-21.55873912 44.96235468 -25.28054182 40.93823516 -27.55078125 35.41796875 C-28.55972847 31.67108545 -28.78207754 28.1640961 -28.75 24.3125 C-28.74436035 23.60762451 -28.7387207 22.90274902 -28.73291016 22.17651367 C-28.59017097 16.03519554 -28.13731552 10.43022869 -24.1484375 5.546875 C-17.28970113 -0.83505082 -8.73319157 -0.13475548 0 0 Z " fill="#383838" transform="translate(1253.4375,226.875)"/>
<path d="M0 0 C3.32339785 3.01002311 5.23754856 5.96717389 7.25 9.9609375 C7.54496872 10.53976181 7.83993744 11.11858612 8.1438446 11.71495056 C8.77514778 12.95524672 9.4030835 14.19726172 10.02792358 15.44082642 C11.67593672 18.71993433 13.34870986 21.98637745 15.01953125 25.25390625 C15.35451126 25.91043686 15.68949127 26.56696747 16.03462219 27.24339294 C19.60276355 34.21761769 23.35281195 41.08890829 27.14257812 47.94482422 C35 62.18289859 35 62.18289859 35 65 C28.4 65 21.8 65 15 65 C11.63084041 58.63315324 8.30202741 52.24738647 5.00854492 45.84106445 C3.88327632 43.66584751 2.74728454 41.49614242 1.6003418 39.33227539 C-0.04905072 36.21596112 -1.65852747 33.0816864 -3.26171875 29.94140625 C-3.78029953 28.98166397 -4.29888031 28.02192169 -4.83317566 27.03309631 C-7.21972849 22.26585968 -8.5793836 19.22253248 -6.8828125 14.0078125 C-6.29376983 12.6544298 -5.66928527 11.31555054 -5 10 C-4.54238281 8.98808594 -4.08476563 7.97617188 -3.61328125 6.93359375 C-3.18402344 6.10988281 -2.75476562 5.28617188 -2.3125 4.4375 C-1.87550781 3.59058594 -1.43851563 2.74367187 -0.98828125 1.87109375 C-0.66214844 1.25363281 -0.33601563 0.63617188 0 0 Z " fill="#0D3F86" transform="translate(1027,229)"/>
<path d="M0 0 C1 1 1 1 1.1328125 2.890625 C1.13023437 3.66921875 1.12765625 4.4478125 1.125 5.25 C1.12886719 6.40242187 1.12886719 6.40242187 1.1328125 7.578125 C1 10 1 10 0 15 C-4.95 15 -9.9 15 -15 15 C-15 25.56 -15 36.12 -15 47 C-20.61 47 -26.22 47 -32 47 C-32 31.82 -32 16.64 -32 1 C-27.38 1 -22.76 1 -18 1 C-17.34 2.98 -16.68 4.96 -16 7 C-15.51789062 6.57847656 -15.03578125 6.15695313 -14.5390625 5.72265625 C-13.90742187 5.17480469 -13.27578125 4.62695312 -12.625 4.0625 C-11.68527344 3.24458984 -11.68527344 3.24458984 -10.7265625 2.41015625 C-7.22953747 -0.44601125 -4.43289736 -0.16119627 0 0 Z " fill="#373737" transform="translate(788,227)"/>
<path d="M0 0 C3.10900406 2.84787271 4.99274653 5.50887965 6.83984375 9.2890625 C7.34580078 10.31386719 7.85175781 11.33867187 8.37304688 12.39453125 C8.88931641 13.46058594 9.40558594 14.52664063 9.9375 15.625 C10.44990234 16.66785156 10.96230469 17.71070313 11.49023438 18.78515625 C12.46201534 20.76329235 13.43047086 22.74306867 14.39428711 24.72509766 C16.57018527 29.16291093 18.78962811 33.57925622 21 38 C7.8 38 -5.4 38 -19 38 C-13.00180158 25.13289695 -6.70989469 12.50926087 0 0 Z " fill="#BD132C" transform="translate(1014,256)"/>
<path d="M0 0 C5.61 0 11.22 0 17 0 C17 15.18 17 30.36 17 46 C11.39 46 5.78 46 0 46 C0 30.82 0 15.64 0 0 Z " fill="#383838" transform="translate(845,228)"/>
<path d="M0 0 C4.0743356 0.84881992 5.54405875 2.30225596 8 5.625 C8.625 8.625 8.625 8.625 8 11.625 C5.9375 14.5 5.9375 14.5 3 16.625 C-0.99048721 17.25507693 -3.01685857 17.25521887 -6.4375 15.0625 C-8.63021887 11.64185857 -8.63007693 9.61548721 -8 5.625 C-5.55401113 2.24378009 -4.10703441 0.85563217 0 0 Z " fill="#3D3D3D" transform="translate(854,205.375)"/>
<path d="M0 0 C2.62576255 0.04235101 3.84003475 0.08080188 6.125 1.4375 C7.125 3.25 7.125 3.25 7.125 8.25 C3.165 8.25 -0.795 8.25 -4.875 8.25 C-4.91741723 5.91705225 -4.91592937 3.58297433 -4.875 1.25 C-3.875 0.25 -3.875 0.25 0 0 Z " fill="#F4F4F4" transform="translate(726.875,237.75)"/>
<path d="M0 0 C0.66 0.33 1.32 0.66 2 1 C0.55089321 4.76767766 -1.86757012 6.86244919 -4.85546875 9.4375 C-6.21572487 10.94271231 -6.21572487 10.94271231 -5.8671875 12.96484375 C-4.58174284 15.9815855 -2.50875458 17.95898633 -0.27734375 20.31640625 C1 22 1 22 1 25 C-1 25 -1 25 -2.69140625 23.35546875 C-3.30886719 22.64003906 -3.92632812 21.92460937 -4.5625 21.1875 C-5.18253906 20.47980469 -5.80257812 19.77210938 -6.44140625 19.04296875 C-8 17 -8 17 -9 14 C-9.66 14 -10.32 14 -11 14 C-10.52590352 9.68269587 -7.96603297 7.66352539 -4.9375 4.75 C-4.01839844 3.85796875 -3.09929687 2.9659375 -2.15234375 2.046875 C-1.44207031 1.37140625 -0.73179688 0.6959375 0 0 Z " fill="#434343" transform="translate(87,236)"/>
<path d="M0 0 C1.91015625 0.23046875 1.91015625 0.23046875 3.91015625 2.23046875 C4.03515625 5.35546875 4.03515625 5.35546875 3.91015625 8.23046875 C0.28015625 8.23046875 -3.34984375 8.23046875 -7.08984375 8.23046875 C-7.13226098 5.897521 -7.13077312 3.56344308 -7.08984375 1.23046875 C-5.19495423 -0.66442077 -2.51845229 0.05027763 0 0 Z " fill="#FBFBFB" transform="translate(938.08984375,237.76953125)"/>
<path d="M0 0 C1.32 0.66 2.64 1.32 4 2 C4 5 4 5 2.3203125 6.7890625 C1.59585938 7.39492187 0.87140625 8.00078125 0.125 8.625 C-0.59429688 9.23601562 -1.31359375 9.84703125 -2.0546875 10.4765625 C-4 12 -4 12 -6 13 C-4.58707905 8.1725201 -2.57025846 4.2837641 0 0 Z " fill="#E9EEF1" transform="translate(1010,248)"/>
<path d="M0 0 C0.66 0.33 1.32 0.66 2 1 C0.45774023 5.16410137 -2.60282605 7.36698254 -6 10 C-6.94875 10.763125 -7.8975 11.52625 -8.875 12.3125 C-9.57625 12.869375 -10.2775 13.42625 -11 14 C-10.52590352 9.68269587 -7.96603297 7.66352539 -4.9375 4.75 C-4.01839844 3.85796875 -3.09929687 2.9659375 -2.15234375 2.046875 C-1.44207031 1.37140625 -0.73179688 0.6959375 0 0 Z " fill="#525252" transform="translate(87,236)"/>
<path d="M0 0 C2.31 0.66 4.62 1.32 7 2 C6.34 3.98 5.68 5.96 5 8 C2.69 7.01 0.38 6.02 -2 5 C-1.34 3.35 -0.68 1.7 0 0 Z " fill="#E8EBEE" transform="translate(1015,238)"/>
</svg>
